<svg xmlns="http://www.w3.org/2000/svg" xmlns:xlink="http://www.w3.org/1999/xlink" version="1.1" width="256" height="256" viewBox="0 0 256 256" xml:space="preserve">
<g style="stroke: none; stroke-width: 0; stroke-dasharray: none; stroke-linecap: butt; stroke-linejoin: miter; stroke-miterlimit: 10; fill: none; fill-rule: nonzero; opacity: 1;" transform="translate(62.954085603112844 62.954085603112816) scale(1.43 1.43)">
	<path d="M 45 0 C 20.187 0 0 20.187 0 45 c 0 24.813 20.187 45 45 45 c 24.813 0 45 -20.187 45 -45 C 90 20.187 69.813 0 45 0 z M 18.18 46.049 c 0 1.016 -0.824 1.84 -1.84 1.84 s -1.84 -0.824 -1.84 -1.84 v -2.099 c 0 -1.016 0.824 -1.84 1.84 -1.84 s 1.84 0.824 1.84 1.84 V 46.049 z M 26.472 51.493 c 0 1.016 -0.824 1.84 -1.84 1.84 h -2.099 c -1.016 0 -1.84 -0.824 -1.84 -1.84 V 38.507 c 0 -1.016 0.824 -1.84 1.84 -1.84 h 2.099 c 1.016 0 1.84 0.824 1.84 1.84 V 51.493 z M 34.826 56.77 c 0 1.016 -0.824 1.84 -1.84 1.84 h -2.099 c -1.016 0 -1.84 -0.824 -1.84 -1.84 V 33.23 c 0 -1.016 0.824 -1.84 1.84 -1.84 h 2.099 c 1.016 0 1.84 0.824 1.84 1.84 V 56.77 z M 52.613 47.889 H 37.387 v -5.778 h 15.226 V 47.889 z M 60.952 56.77 c 0 1.016 -0.824 1.84 -1.84 1.84 h -2.099 c -1.016 0 -1.84 -0.824 -1.84 -1.84 V 33.23 c 0 -1.016 0.824 -1.84 1.84 -1.84 h 2.099 c 1.016 0 1.84 0.824 1.84 1.84 V 56.77 z M 69.275 51.493 c 0 1.016 -0.824 1.84 -1.84 1.84 h -2.099 c -1.016 0 -1.84 -0.824 -1.84 -1.84 V 38.507 c 0 -1.016 0.824 -1.84 1.84 -1.84 h 2.099 c 1.016 0 1.84 0.824 1.84 1.84 V 51.493 z M 75.5 46.049 c 0 1.016 -0.824 1.84 -1.84 1.84 s -1.84 -0.824 -1.84 -1.84 v -2.099 c 0 -1.016 0.824 -1.84 1.84 -1.84 s 1.84 0.824 1.84 1.84 V 46.049 z" style="stroke: none; stroke-width: 1; stroke-dasharray: none; stroke-linecap: butt; stroke-linejoin: miter; stroke-miterlimit: 10; fill: rgb(80,12,100); fill-rule: nonzero; opacity: 1;" transform=" matrix(1 0 0 1 0 0) " stroke-linecap="round"/>
</g>
</svg>